<svg width="38" height="39" viewBox="0 0 38 39" fill="none" xmlns="http://www.w3.org/2000/svg">
<path d="M34.5254 16.7748H33.25V16.7091H19V23.0424H27.9482C26.6427 26.7292 23.1349 29.3758 19 29.3758C13.7536 29.3758 9.49999 25.1222 9.49999 19.8758C9.49999 14.6294 13.7536 10.3758 19 10.3758C21.4217 10.3758 23.6249 11.2894 25.3024 12.7817L29.7809 8.3032C26.9531 5.66774 23.1705 4.04245 19 4.04245C10.256 4.04245 3.16666 11.1318 3.16666 19.8758C3.16666 28.6197 10.256 35.7091 19 35.7091C27.7439 35.7091 34.8333 28.6197 34.8333 19.8758C34.8333 18.8142 34.7241 17.7779 34.5254 16.7748Z" fill="#FFC107"/>
<path d="M4.99225 12.5062L10.1943 16.3212C11.6019 12.8363 15.0108 10.3758 19 10.3758C21.4217 10.3758 23.6249 11.2894 25.3025 12.7817L29.7809 8.3032C26.9531 5.66774 23.1705 4.04245 19 4.04245C12.9184 4.04245 7.64433 7.47591 4.99225 12.5062Z" fill="#FF3D00"/>
<path d="M19 35.7091C23.0898 35.7091 26.8058 34.144 29.6155 31.5988L24.7151 27.452C23.072 28.7016 21.0643 29.3774 19 29.3758C14.8818 29.3758 11.385 26.7498 10.0676 23.0852L4.90439 27.0633C7.52481 32.191 12.8464 35.7091 19 35.7091Z" fill="#4CAF50"/>
<path d="M34.5254 16.7748H33.25V16.7091H19V23.0425H27.9482C27.3237 24.7971 26.1989 26.3304 24.7127 27.4528L24.715 27.4513L29.6155 31.598C29.2687 31.9131 34.8333 27.7925 34.8333 19.8758C34.8333 18.8142 34.7241 17.7779 34.5254 16.7748Z" fill="#1976D2"/>
</svg>
