<svg width="124" height="123" viewBox="0 0 124 123" fill="none" xmlns="http://www.w3.org/2000/svg">
<g clip-path="url(#clip0_4_8095)">
<path d="M0.65741 61.4376C0.65741 27.5066 28.1214 0 61.9997 0C95.878 0 123.342 27.5066 123.343 61.4376C123.343 95.3686 95.8787 122.875 61.9997 122.876C28.1214 122.876 0.65741 95.3692 0.65741 61.4376ZM61.9997 120.287C94.4509 120.287 120.757 93.9398 120.758 61.4376C120.758 28.936 94.4515 2.58867 61.9997 2.58867C29.5485 2.58867 3.24206 28.936 3.24206 61.4376C3.24206 93.9392 29.5485 120.287 61.9997 120.287Z" fill="#1DBF72"/>
<path d="M62 122.261C95.5398 122.261 122.729 95.0298 122.729 61.4379C122.729 27.846 95.5398 0.61438 62 0.61438C28.4602 0.61438 1.27084 27.846 1.27084 61.4379C1.27084 95.0298 28.4602 122.261 62 122.261Z" fill="#1DBF72"/>
<g clip-path="url(#clip1_4_8095)">
<g clip-path="url(#clip2_4_8095)">
<path d="M62.2512 92.199L63.0175 90.6322C63.3472 89.9541 69.9301 76.5212 75.5982 68.3839C69.5912 73.2924 64.8665 81.6136 64.8089 81.7165L63.0417 84.8584L63.1536 81.2533C63.1602 81.0543 63.9641 61.2314 80.7937 51.83C86.7622 48.4949 89.7265 44.9969 89.1405 41.9795L88.7172 39.8016L90.522 41.0891C95.4922 44.6332 98.7135 51.7463 98.9322 59.6521C99.1618 67.9608 96.0331 75.5347 90.5612 79.9148C79.0541 89.1214 64.5777 91.7843 63.9666 91.8938L62.2512 92.199ZM83.0651 62.3776L80.1009 65.5187C75.2684 70.6371 67.88 84.8985 65.4291 89.7618C69.653 88.7502 80.6126 85.605 89.4568 78.5278C94.498 74.4946 97.3787 67.455 97.165 59.6989C96.9822 53.1367 94.6282 47.1974 90.9135 43.6976C90.4035 46.9407 87.2531 50.249 81.6552 53.3767C70.1589 59.8001 66.5452 71.3602 65.4216 77.3966C68.2005 73.2606 73.3568 66.5897 79.1058 64.0957L83.0651 62.3776Z" fill="white"/>
<path d="M60.363 78.3764L58.7803 78.0888C58.211 77.9852 44.7154 75.4569 33.9904 66.7143C28.3967 62.1536 25.056 54.8498 25.056 47.1781C25.0551 40.7363 27.4367 35.1005 31.5888 31.7144L32.861 30.6769L32.9453 32.3181C33.1081 35.5009 35.341 36.4774 38.7202 37.9539C40.0508 38.535 41.5592 39.1946 43.1135 40.0792C58.7928 49.0007 59.7294 69.4097 59.7611 70.2725L59.8938 73.8341L58.1976 70.7014C58.1408 70.5961 53.7617 62.5975 47.9058 57.8529C54.1323 65.0806 59.4055 76.3189 59.6835 76.9167L60.363 78.3764ZM31.5329 34.0153C28.4568 37.1421 26.7188 41.8483 26.7196 47.1781C26.7196 54.354 29.8316 61.1746 35.0414 65.4217C43.288 72.1436 53.4904 75.1233 57.4238 76.0823C55.1866 71.6019 48.3216 58.6421 41.9173 54.6199L37.3737 51.7664L42.5667 53.1066C49.077 54.7871 54.7742 62.2079 57.6617 66.6114C56.6333 60.3427 53.2433 47.7609 42.2904 41.5281C40.8121 40.687 39.3462 40.0466 38.0523 39.4814C35.0297 38.1596 32.3601 36.9933 31.5329 34.0153Z" fill="white"/>
</g>
</g>
</g>
<defs>
<clipPath id="clip0_4_8095">
<rect width="122.685" height="122.876" fill="white" transform="translate(0.65741)"/>
</clipPath>
<clipPath id="clip1_4_8095">
<rect width="73.888" height="61.5221" fill="white" transform="translate(25.056 30.6769)"/>
</clipPath>
<clipPath id="clip2_4_8095">
<rect width="73.888" height="61.5221" fill="white" transform="translate(25.056 30.6769)"/>
</clipPath>
</defs>
</svg>
