<svg width="38" height="39" viewBox="0 0 38 39" fill="none" xmlns="http://www.w3.org/2000/svg">
<g clip-path="url(#clip0_4_8084)">
<path d="M38 19.8758C38 9.38245 29.4933 0.875793 19 0.875793C8.50666 0.875793 0 9.38245 0 19.8758C0 29.3592 6.94806 37.2197 16.0312 38.645V25.368H11.207V19.8758H16.0312V15.6899C16.0312 10.928 18.8679 8.29767 23.2079 8.29767C25.2866 8.29767 27.4609 8.66876 27.4609 8.66876V13.3445H25.0652C22.7049 13.3445 21.9688 14.8092 21.9688 16.3118V19.8758H27.2383L26.3959 25.368H21.9688V38.645C31.0519 37.2197 38 29.3593 38 19.8758Z" fill="#1877F2"/>
<path d="M26.3959 25.368L27.2383 19.8758H21.9688V16.3118C21.9688 14.809 22.7049 13.3445 25.0652 13.3445H27.4609V8.66876C27.4609 8.66876 25.2866 8.29767 23.2078 8.29767C18.8679 8.29767 16.0312 10.928 16.0312 15.6899V19.8758H11.207V25.368H16.0312V38.645C17.0133 38.7989 18.0059 38.8761 19 38.8758C19.9941 38.8761 20.9867 38.7989 21.9688 38.645V25.368H26.3959Z" fill="white"/>
</g>
<defs>
<clipPath id="clip0_4_8084">
<rect width="38" height="38" fill="white" transform="translate(0 0.875793)"/>
</clipPath>
</defs>
</svg>
