<svg width="294" height="189" viewBox="0 0 294 189" fill="none" xmlns="http://www.w3.org/2000/svg">
<path d="M346.882 98.9244C336.409 90.4008 323.341 89.1163 309.965 88.9208C307.436 88.8839 304.899 88.8854 302.362 88.8868C291.369 88.8931 280.393 88.8994 270.276 85.7817C263.205 83.6029 256.496 79.9891 249.921 75.8433C246.121 73.4468 242.426 70.9142 238.736 68.3844C235.994 66.5046 233.254 64.6264 230.474 62.8066C217.584 54.3676 204.328 47.5241 189.198 50.3789C159.125 56.053 137.104 84.9169 128.24 113C124.078 126.186 127.069 139.205 131.558 152.125C132.835 155.803 134.23 159.466 135.624 163.126C139.163 172.419 142.698 181.701 144.308 191.208C145.314 197.148 145.368 203.361 145.127 209.672C145.024 212.375 144.864 215.129 144.705 217.886C144.496 221.491 144.286 225.1 144.203 228.601C143.907 241.062 145.146 253.126 153.646 262.783C162.148 272.442 174.278 275.46 187.04 277.12C190.238 277.536 193.492 277.868 196.747 278.195L197.422 278.263C200.457 278.567 203.492 278.871 206.505 279.24C212.978 280.032 219.3 281.117 225.179 283.11C235.353 286.561 244.886 292.152 254.414 297.741C257.984 299.835 261.554 301.929 265.157 303.91C278.287 311.129 291.774 316.778 306.803 314.751C338.723 310.446 369.259 289.716 383.004 261.481C389.763 247.597 389.712 232.655 387.193 217.554C385.933 210.002 384.05 202.384 382.077 194.818C381.659 193.213 381.236 191.611 380.815 190.012C379.246 184.062 377.689 178.159 376.393 172.325C375.445 168.059 374.587 163.669 373.722 159.24C371.968 150.258 370.182 141.113 367.544 132.508C363.588 119.608 357.664 107.699 346.882 98.9244Z" stroke="#138B52" stroke-width="2"/>
<path fill-rule="evenodd" clip-rule="evenodd" d="M250.424 47.2351C285.599 47.6804 306.636 87.2626 326.289 115.856C343.281 140.58 348.893 169.136 354.228 198.268C359.865 229.045 368.442 260.129 358.09 289.495C346.515 322.329 326.461 355.099 293.908 369.37C261.421 383.613 221.848 378.175 189.078 363.59C160.068 350.678 151.213 316.019 127.436 295.275C99.8224 271.186 50.4562 267.554 39.6269 233.21C28.8995 199.188 51.1072 160.925 77.4623 136.787C101.086 115.151 141.228 128.733 169.922 113.877C201.858 97.3417 213.999 46.774 250.424 47.2351Z" stroke="#7EFFC2" stroke-width="2"/>
</svg>
