<svg width="349" height="294" viewBox="0 0 349 294" fill="none" xmlns="http://www.w3.org/2000/svg">
<path d="M201.118 -152.632C189.063 -162.473 174.145 -163.394 158.866 -162.972C155.981 -162.892 153.085 -162.765 150.19 -162.638C137.636 -162.088 125.089 -161.537 113.481 -164.837C105.367 -167.144 97.6478 -171.216 90.0779 -175.942C85.7041 -178.673 81.4453 -181.577 77.1928 -184.477C74.0348 -186.63 70.8802 -188.781 67.6847 -190.857C52.8491 -200.494 37.6346 -208.158 20.4303 -203.943C3.31891 -199.751 -11.4037 -188.595 -23.0431 -174.216C-34.6845 -159.833 -43.2872 -142.173 -48.1516 -124.849C-52.6914 -108.682 -49.119 -93.0495 -43.8122 -77.5444C-42.306 -73.1437 -40.6648 -68.7621 -39.0228 -64.3783C-34.8468 -53.2296 -30.6657 -42.0673 -28.6882 -30.5445C-27.4509 -23.3345 -27.3019 -15.7498 -27.4878 -8.04639C-27.5678 -4.73497 -27.7113 -1.37046 -27.8549 1.99327C-28.0423 6.38502 -28.2297 10.7755 -28.2752 15.0447C-28.4369 30.207 -26.8537 44.7596 -17.0584 56.0435C-7.242 67.3518 6.62414 70.4283 21.2244 71.82C24.8814 72.1686 28.6003 72.4124 32.3227 72.6495L33.0976 72.6988C36.5668 72.9193 40.036 73.1398 43.4812 73.44C50.8865 74.0853 58.1262 75.0946 64.8739 77.2338C72.865 79.7672 80.5673 83.5586 88.1762 87.749C91.6627 89.669 95.1207 91.6678 98.5769 93.6655C98.8916 93.8475 99.2064 94.0294 99.5211 94.2113C103.288 96.3878 107.054 98.5536 110.833 100.591C125.926 108.731 141.391 114.934 158.498 111.729C194.864 104.916 229.373 78.1933 244.628 43.2309C252.115 26.071 251.855 7.94821 248.768 -10.2922C247.224 -19.4132 244.97 -28.5876 242.61 -37.7019C242.109 -39.6341 241.605 -41.563 241.101 -43.4881C239.224 -50.6568 237.362 -57.7739 235.797 -64.8189C234.651 -69.9802 233.609 -75.2899 232.558 -80.6437C230.429 -91.4866 228.265 -102.51 225.134 -112.846C220.443 -128.33 213.526 -142.503 201.118 -152.632Z" stroke="#138B52" stroke-width="2"/>
<path fill-rule="evenodd" clip-rule="evenodd" d="M78.8465 179.039C42.7596 196.735 0.88178 163.958 -33.9121 142.583C-63.9962 124.102 -84.4576 95.5097 -104.935 66.1383C-126.568 35.1089 -151.358 5.26217 -155.964 -32.4784C-161.113 -74.6749 -157.587 -121.186 -131.77 -153.757C-106.005 -186.263 -62.8577 -200.727 -21.9233 -201.584C14.3138 -202.343 41.232 -168.697 76.1782 -158.113C116.762 -145.823 168.96 -167.342 197.728 -135.064C226.226 -103.089 223.34 -49.4059 208.934 -9.15757C196.021 26.9188 148.089 32.6952 126.508 63.9165C102.489 98.6656 116.215 160.714 78.8465 179.039Z" stroke="#7EFFC2" stroke-width="2"/>
</svg>
